<?xml version="1.0" encoding="UTF-8"?>
<svg id="Layer_2" data-name="Layer 2" xmlns="http://www.w3.org/2000/svg" viewBox="0 0 86.91 86.94">
  <defs>
    <style>
      .cls-1 {
        fill: #8abfff;
      }
    </style>
  </defs>
  <g id="Layer_1-2" data-name="Layer 1">
    <g id="eWMfo4">
      <path class="cls-1" d="M84.71,0c1.66.65,2.7,2.24,1.94,4.03l-5.85,13.8c-.48,1.14-1.53,1.77-2.73,1.81h-6.79s-4.49,4.5-4.49,4.5c7.73,8.91,12.98,20.65,15.08,32.16,1.79,9.81,1.21,20.43-4.52,28.85-.63.93-1.32,1.49-2.33,1.8h-.85l-1.31-.62-34.11-34.11-8.59,8.55,3.45,10.35c.33,1.13.06,2.19-.78,3.04l-12.2,12.2-1.16.59h-1.31c-1.01-.48-1.71-1.1-2.08-2.22l-3.47-10.43-10.58-3.52c-1-.33-1.69-1.08-1.93-1.94-.28-1.01-.06-2.05.71-2.82l12.02-12.03c.85-.77,1.87-1.01,2.96-.69l10.35,3.45,8.57-8.57L1.03,14.48C.31,13.76-.04,12.97.05,12.03c.07-.78.5-1.58,1.23-2.1,17.16-12.42,46.75-2.83,61.5,10.19l4.49-4.49.02-6.9c0-1.14.74-2.16,1.79-2.61l14.43-6.11h1.19ZM46.7,28.91c-6.61-4.77-13.62-8.62-21.18-11.46-4.89-1.84-11.56-3.65-16.75-3.28l29.99,29.98,11.97-11.97-4.02-3.27ZM69.56,61.64c-2.83-7.62-6.7-14.68-11.44-21.27l-3.39-4.17-11.96,11.97,29.97,29.97c.38-5.03-1.41-11.72-3.19-16.5Z"/>
    </g>
  </g>
</svg>