<?xml version="1.0" encoding="UTF-8"?>
<svg id="Layer_2" data-name="Layer 2" xmlns="http://www.w3.org/2000/svg" viewBox="0 0 89.25 89.25">
  <defs>
    <style>
      .cls-1 {
        fill: #8abfff;
      }
    </style>
  </defs>
  <g id="Layer_1-2" data-name="Layer 1">
    <path class="cls-1" d="M88.24,61.24L54.44,27.44l12.17-12.17c.92-.92,1.25-2.29.84-3.52-.41-1.24-1.47-2.15-2.76-2.35L3.99.04c-1.09-.17-2.2.19-2.98.97S-.13,2.9.04,3.99l9.36,60.7c.11.74.46,1.41.97,1.92.38.38.84.67,1.37.84,1.24.41,2.6.08,3.52-.84l12.17-12.17,33.8,33.8c1.35,1.35,3.54,1.35,4.9,0l22.1-22.1c1.35-1.35,1.35-3.54,0-4.9Z"/>
  </g>
</svg>