<?xml version="1.0" encoding="UTF-8"?>
<svg id="Layer_2" data-name="Layer 2" xmlns="http://www.w3.org/2000/svg" viewBox="0 0 100.64 105.44">
  <defs>
    <style>
      .cls-1 {
        fill: #8abfff;
      }
    </style>
  </defs>
  <g id="Layer_1-2" data-name="Layer 1">
    <path class="cls-1" d="M96.58,34.14l-28.19,5.45,13.89-25.13c1.94-3.5-2.72-6.89-5.46-3.96l-19.61,20.98-3.53-28.5c-.49-3.97-6.25-3.97-6.74,0l-3.53,28.5L23.81,10.5c-2.73-2.93-7.39.46-5.46,3.96l13.89,25.13-28.19-5.45c-3.93-.76-5.71,4.72-2.08,6.41l26.01,12.16L1.97,64.88c-3.63,1.7-1.85,7.17,2.08,6.41l28.19-5.45-13.89,25.13c-1.94,3.5,2.72,6.89,5.46,3.96l19.61-20.98,3.53,28.5c.49,3.97,6.25,3.97,6.74,0l3.53-28.5,19.61,20.98c2.73,2.93,7.39-.46,5.46-3.96l-13.89-25.13,28.19,5.45c3.93.76,5.71-4.72,2.08-6.41l-26.01-12.16,26.01-12.16c3.63-1.7,1.85-7.17-2.08-6.41Z"/>
  </g>
</svg>