<?xml version="1.0" encoding="UTF-8"?>
<svg id="Layer_2" data-name="Layer 2" xmlns="http://www.w3.org/2000/svg" viewBox="0 0 54.53 54.53">
  <defs>
    <style>
      .cls-1 {
        fill: #ffb40d;
      }
    </style>
  </defs>
  <g id="Layer_1-2" data-name="Layer 1">
    <g>
      <path class="cls-1" d="M23.39,14.55l3.4,13.18,13.18,3.4c2.53.65,2.53,4.25,0,4.9l-13.18,3.4-3.4,13.18c-.65,2.53-4.25,2.53-4.9,0l-3.4-13.18-13.18-3.4c-2.53-.65-2.53-4.25,0-4.9l13.18-3.4,3.4-13.18c.65-2.53,4.25-2.53,4.9,0Z"/>
      <path class="cls-1" d="M44.97.98l1.76,6.82,6.82,1.76c1.31.34,1.31,2.2,0,2.54l-6.82,1.76-1.76,6.82c-.34,1.31-2.2,1.31-2.54,0l-1.76-6.82-6.82-1.76c-1.31-.34-1.31-2.2,0-2.54l6.82-1.76,1.76-6.82c.34-1.31,2.2-1.31,2.54,0Z"/>
    </g>
  </g>
</svg>