<?xml version="1.0" encoding="UTF-8"?>
<svg id="Layer_2" data-name="Layer 2" xmlns="http://www.w3.org/2000/svg" viewBox="0 0 113.31 113.31">
  <defs>
    <style>
      .cls-1 {
        fill: #8abfff;
      }
    </style>
  </defs>
  <g id="Layer_1-2" data-name="Layer 1">
    <path class="cls-1" d="M110.02,53.36h-13.3l5.17-5.17c1.29-1.29,1.29-3.37,0-4.66-1.29-1.29-3.37-1.29-4.66,0l-9.83,9.83h-22.8l16.12-16.12h13.9c1.82,0,3.29-1.47,3.29-3.29s-1.47-3.29-3.29-3.29h-7.31l9.41-9.41c1.29-1.29,1.29-3.37,0-4.66-1.29-1.29-3.37-1.29-4.66,0l-9.41,9.41v-7.31c0-1.82-1.47-3.29-3.29-3.29s-3.29,1.47-3.29,3.29v13.9l-16.12,16.12v-22.8l9.83-9.83c1.29-1.29,1.29-3.37,0-4.66-1.29-1.29-3.37-1.29-4.66,0l-5.17,5.17V3.29c0-1.82-1.47-3.29-3.29-3.29s-3.29,1.47-3.29,3.29v13.3l-5.17-5.17c-1.29-1.29-3.37-1.29-4.66,0-1.29,1.29-1.29,3.37,0,4.66l9.83,9.83v22.8l-16.12-16.12v-13.9c0-1.82-1.47-3.29-3.29-3.29s-3.29,1.47-3.29,3.29v7.31l-9.41-9.41c-1.29-1.29-3.37-1.29-4.66,0-1.29,1.29-1.29,3.37,0,4.66l9.41,9.41h-7.31c-1.82,0-3.29,1.47-3.29,3.29s1.47,3.29,3.29,3.29h13.9l16.12,16.12h-22.79l-9.83-9.83c-1.29-1.29-3.37-1.29-4.66,0-1.29,1.29-1.29,3.37,0,4.66l5.17,5.17H3.29c-1.82,0-3.29,1.47-3.29,3.29s1.47,3.29,3.29,3.29h13.3l-5.17,5.17c-1.29,1.29-1.29,3.37,0,4.66.64.64,1.49.96,2.33.96s1.69-.32,2.33-.96l9.83-9.83h22.79l-16.12,16.12h-13.9c-1.82,0-3.29,1.47-3.29,3.29s1.47,3.29,3.29,3.29h7.31l-9.41,9.41c-1.29,1.29-1.29,3.37,0,4.66.64.64,1.49.96,2.33.96s1.69-.32,2.33-.96l9.41-9.41v7.31c0,1.82,1.47,3.29,3.29,3.29s3.29-1.47,3.29-3.29v-13.9l16.12-16.12v22.79l-9.83,9.83c-1.29,1.29-1.29,3.37,0,4.66.64.64,1.49.96,2.33.96s1.69-.32,2.33-.96l5.17-5.17v13.3c0,1.82,1.47,3.29,3.29,3.29s3.29-1.47,3.29-3.29v-13.3l5.17,5.17c.64.64,1.49.96,2.33.96s1.69-.32,2.33-.96c1.29-1.29,1.29-3.37,0-4.66l-9.83-9.83v-22.79l16.12,16.12v13.9c0,1.82,1.47,3.29,3.29,3.29s3.29-1.47,3.29-3.29v-7.31l9.41,9.41c.64.64,1.49.96,2.33.96s1.69-.32,2.33-.96c1.29-1.29,1.29-3.37,0-4.66l-9.41-9.41h7.31c1.82,0,3.29-1.47,3.29-3.29s-1.47-3.29-3.29-3.29h-13.9l-16.12-16.12h22.8l9.83,9.83c.64.64,1.49.96,2.33.96s1.69-.32,2.33-.96c1.29-1.29,1.29-3.37,0-4.66l-5.17-5.17h13.3c1.82,0,3.29-1.47,3.29-3.29s-1.47-3.29-3.29-3.29Z"/>
  </g>
</svg>