<?xml version="1.0" encoding="UTF-8"?>
<svg id="Layer_2" xmlns="http://www.w3.org/2000/svg" version="1.1" viewBox="0 0 660.4 526.6">
  <!-- Generator: Adobe Illustrator 30.2.1, SVG Export Plug-In . SVG Version: 2.1.1 Build 1)  -->
  <defs>
    <style>
      .st0 {
        fill: #ce8fff;
      }

      .st1 {
        isolation: isolate;
      }
    </style>
  </defs>
  <g id="Layer_1-2">
    <g class="st1">
      <g class="st1">
        <path class="st0" d="M122.6,219.4H31.6c-7.9,0-14.4-6.5-14.4-14.4V42.2c0-7.9,6.5-14.4,14.4-14.4h91c5.3,0,9.6,4.3,9.6,9.6v33.5c0,5.3-4.3,9.6-9.6,9.6H50.8c-7.9,0-14.4,6.5-14.4,14.4v91c0,7.9,6.5,14.4,14.4,14.4h47.9c7.9-.2,14.4-6.5,14.4-14.4v-9.8c0-7.9-6.5-14.4-14.4-14.4h-24.4c-5.3,0-9.6-4.3-9.6-9.6v-33.5c0-5.3,4.3-9.6,9.6-9.6h43.6c7.9,0,14.4,6.5,14.4,14.4v86.5c0,5.3-4.3,9.6-9.6,9.6Z"/>
        <path class="st0" d="M276.9,219.4h-19.2c-7.9,0-14.4-6.5-14.4-14.4v-24c0-7.9,14.4-14.4,14.4-14.4,7.9,0,14.4-6.5,14.4-14.4v-14.4c0-5.3-4.3-9.6-9.6-9.6h-56.5c-3.6,0-6.5,1.9-8.4,4.8,0,0-.2.5-15.6,23.2-.5,1-.7,2.2-.7,3.1,0,4.1,3.4,7.2,7.2,7.2h28.5c7.9,0,14.4,6.5,14.4,14.4v24c0,7.9-6.5,14.4-14.4,14.4h-45.5c-7.9,0-14.4-6.5-14.4-14.4v-37.6c0-3.8.7-7.4,1.9-10.8,80-121.7,80.7-122.6,80.7-122.6,2.4-3.8,6.7-6.2,11.7-6.2h25.4c7.9,0,14.4,6.5,14.4,14.4v162.9c0,7.9-6.5,14.4-14.4,14.4ZM272.1,56.8c0-5.3-4.3-9.6-9.6-9.6h-3.6c-3.4,0-6.2,1.7-7.9,4.3l-31.1,47.2c-.5,1-.7,2.2-.7,3.4,0,3.8,3.4,7.2,7.2,7.2h31.4c8.1,0,14.4-6.5,14.4-14.4v-38.1Z"/>
        <path class="st0" d="M488.9,219.4h-4.8c-7.9,0-14.4-6.5-14.4-14.4v-25.9c0-5.3,2.9-10.1,7.2-12.5,0,0,7.2-7.2,7.2-12.5V56.5c0-5.3-4.3-9.6-9.6-9.6h-19.4c-5.3,0-9.6,4.3-9.6,9.6v97.7c0,5.3,2.9,9.8,7.2,12.5,4.3,2.4,7.2,7.2,7.2,12.5v25.9c0,7.9-6.5,14.4-14.4,14.4h-43.1c-7.9,0-14.4-6.5-14.4-14.4v-24c0-8.1,6.5-14.4,14.4-14.4h9.6c7.9,0,14.4-6.5,14.4-14.4V56.5c0-5.3-4.3-9.6-9.6-9.6h-9.6c-4.3,0-7.7,2.9-9.1,6.7l-41.4,102.8c-.5,1-.7,1.9-.7,3.1,0,3.8,3.1,7.2,7.2,7.2h1c7.9-.2,14.4,6.2,14.4,14.4v24c0,7.9-6.5,14.4-14.4,14.4h-33.5c-7.9,0-14.4-6.5-14.4-14.4v-24c0-6.5,4.1-11.7,9.6-13.7,4.3-1.2,7.7-4.6,9.1-8.4l3.1-7.9,46-113.8c2.2-5.5,7.4-9.6,13.7-9.6h91.3c7.9,0,14.4,6.5,14.4,14.4v162.9c0,7.9-6.5,14.4-14.4,14.4Z"/>
        <path class="st0" d="M633.6,219.4h-91c-7.9,0-14.4-6.5-14.4-14.4V42.2c0-7.9,6.5-14.4,14.4-14.4h91c5.3,0,9.6,4.3,9.6,9.6s-4.3,9.6-9.6,9.6h-38.3c-7.9,0-14.4,6.5-14.4,14.4v33.5c0,7.9,6.5,14.4,14.4,14.4h38.3c5.3,0,9.6,4.3,9.6,9.6s-4.3,9.6-9.6,9.6h-71.9c-7.9,0-14.4,6.5-14.4,14.4v43.1c0,7.9,6.5,14.4,14.4,14.4h71.9c5.3,0,9.6,4.3,9.6,9.6s-4.3,9.6-9.6,9.6Z"/>
      </g>
      <g class="st1">
        <path class="st0" d="M109.2,498.8H23.2c-7.9,0-14.4-6.5-14.4-14.4v-162.4c0-7.9,6.5-14.1,14.4-14.1h86c7.9,0,14.1,6.2,14.1,14.1v162.4c0,7.9-6.2,14.4-14.1,14.4ZM104.4,374.7c0-7.9-6.5-14.4-14.4-14.4h-47.7c-7.9,0-14.4,6.5-14.4,14.4v90.5c0,8.1,6.5,14.4,14.4,14.4h47.7c7.9,0,14.4-6.2,14.4-14.4v-90.5Z"/>
        <path class="st0" d="M281.9,359.6v-.2c-4.3,1.4-7.4,4.6-9.1,8.6l-3.1,7.9-45.8,113.3c-2.4,5.5-7.4,9.6-13.7,9.6h-33.3c-7.9,0-14.4-6.5-14.4-14.4v-111.6c0-5.5-2.9-10.1-7.2-12.5-4.3-2.4-7.2-7.2-7.2-12.5v-25.6c0-7.9,6.5-14.4,14.4-14.4h42.9c7.9,0,14.4,6.5,14.4,14.4v23.7c0,7.9-6.5,14.4-14.4,14.4h-9.6c-7.9,0-14.1,6.5-14.1,14.4v95.3c0,5.3,4.3,9.6,9.6,9.6h9.3c4.3,0,7.7-2.9,9.1-6.7l41.2-102.3c.5-1,1-1.9,1-3.1,0-4.1-3.4-7.2-7.2-7.2h-1c-7.9,0-14.4-6.5-14.4-14.4v-23.7c0-7.9,6.5-14.4,14.4-14.4h33.3c7.9,0,14.4,6.5,14.4,14.4v23.7c0,6.2-4.1,11.5-9.6,13.7Z"/>
        <path class="st0" d="M421.8,498.8h-91c-7.9,0-14.4-6.5-14.4-14.4v-162.9c0-7.9,6.5-14.4,14.4-14.4h91c5.3,0,9.6,4.3,9.6,9.6s-4.3,9.6-9.6,9.6h-71.9c-7.9,0-14.4,6.5-14.4,14.4v43.1c0,7.9,6.5,14.4,14.4,14.4h71.9c5.3,0,9.6,4.3,9.6,9.6s-4.3,9.6-9.6,9.6h-38.3c-7.9,0-14.4,6.5-14.4,14.4v33.5c0,7.9,6.5,14.4,14.4,14.4h38.3c5.3,0,9.6,4.3,9.6,9.6s-4.3,9.6-9.6,9.6Z"/>
        <path class="st0" d="M570.8,498.8s-9.6-4.3-9.6-9.6v-66.8c0-7.9-6.2-14.4-14.1-14.4h-28.7c-7.9,0-14.4,6.5-14.4,14.4v62c0,7.9-6.2,14.4-14.1,14.4h-19.2c-7.9,0-14.4-6.5-14.4-14.4v-162.2c0-7.9,6.5-14.4,14.4-14.4h71.6c7.9,0,14.1,6.5,14.1,14.4v51.3c0,3.8,1.7,7.4,4.3,10.1l15.3,15.6c2.6,2.6,4.3,6.2,4.3,10.1v80c0,5.3-4.3,9.6-9.6,9.6ZM537.5,341.2c0-7.9-6.5-14.1-14.4-14.1h-33.3c-7.9,0-14.4,6.2-14.4,14.1v33.5c0,7.9,6.5,14.4,14.4,14.4h33.3c7.9,0,14.4-6.5,14.4-14.4v-33.5Z"/>
        <path class="st0" d="M644.6,415.7c-4.3,2.4-7.2,6.9-7.2,12.5v23.2c0,5-4.3,9.3-9.6,9.3,0,0-9.6-4.3-9.6-9.3v-23.2c0-5.5-2.9-10.1-7.2-12.5-4.1-2.4-6.9-7.2-6.9-12.5v-80.7c0-7.7,6.5-14.4,14.4-14.4h18.9c7.9,0,14.1,6.7,14.1,14.4v80.7c0,5.3-2.6,10.1-6.9,12.5ZM627.8,498.8c-5.3,0-9.6-4.3-9.6-9.6s4.3-9.6,9.6-9.6,9.6,4.3,9.6,9.6-4.3,9.6-9.6,9.6Z"/>
      </g>
    </g>
  </g>
</svg>