<?xml version="1.0" encoding="UTF-8"?>
<svg id="Layer_2" data-name="Layer 2" xmlns="http://www.w3.org/2000/svg" viewBox="0 0 80.24 101.07">
  <defs>
    <style>
      .cls-1 {
        fill: #8abfff;
      }
    </style>
  </defs>
  <g id="Layer_1-2" data-name="Layer 1">
    <path class="cls-1" d="M76.62,82.4c-2.44-4.55-5.84-6.93-9.43-9.45-3.43-2.4-6.96-4.88-10.11-9.51-2.51-3.69-4.21-7.97-5.09-12.72h7.02c1.78,0,3.32-1.21,3.73-2.94l.95-3.93c.56-2.15-.47-4.45-2.45-5.46l-7.47-3.8c4.1-3.76,6.43-9.03,6.43-14.66C60.2,8.95,51.25,0,40.26,0s-19.94,8.95-19.94,19.94c0,5.44,2.21,10.6,6.1,14.35l-8.15,4.43c-1.79.97-2.77,2.96-2.43,4.97l1.03,4.14c.43,1.71,1.96,2.91,3.73,2.91h8.06c-1.38,5.08-3.61,9.66-6.66,13.59-3.09,3.99-6.16,6.25-9.13,8.42-3.26,2.4-6.35,4.66-8.75,8.87-1.81,3.2-5.18,9.17-3.78,18.69l.11.77h79.21l.14-.74c1.63-9-1.49-14.81-3.17-17.93Z"/>
  </g>
</svg>