<?xml version="1.0" encoding="UTF-8"?>
<svg id="Layer_2" data-name="Layer 2" xmlns="http://www.w3.org/2000/svg" viewBox="0 0 91.23 95.37">
  <defs>
    <style>
      .cls-1 {
        fill: #8abfff;
      }
    </style>
  </defs>
  <g id="Layer_1-2" data-name="Layer 1">
    <path class="cls-1" d="M90.37,29.08c-1.39-2.15-4.27-3.08-6.71-1.84-2.49,1.26-4.76,2.73-7.21,4.42.37-16.75-12.26-30.23-28.6-31.66h-4.46C27.05,1.43,14.42,14.91,14.78,31.66c-2.45-1.68-4.72-3.15-7.21-4.42-2.44-1.24-5.31-.31-6.71,1.84-1.48,2.28-1.04,5.19,1.11,6.96,4.46,3.67,8.35,7.8,11.68,12.52-.7,5.14-1.48,9.98-2.69,14.94l-4.17,17.04c-.2.81.34,1.51,1.12,1.65l4.6.79c2.06.36,3.67,1.54,4.66,3.38,1.8,3.36,5.43,5.23,9.23,4.63,2.25-.35,4.25.28,5.87,1.87,2.62,2.56,4.59,2.66,8.12,2.43.74-.05,1.65-.47,2.33-.79,1.08-.51,2.02-.7,2.87-.69.85,0,1.79.18,2.87.69.67.32,1.58.74,2.33.79,3.53.23,5.5.13,8.12-2.43,1.62-1.58,3.62-2.22,5.87-1.87,3.8.6,7.43-1.27,9.23-4.63.99-1.84,2.6-3.03,4.66-3.38l4.6-.79c.78-.14,1.32-.84,1.12-1.65l-4.17-17.04c-1.21-4.96-1.99-9.8-2.69-14.94,3.33-4.72,7.22-8.85,11.68-12.52,2.15-1.77,2.59-4.68,1.11-6.96ZM34.42,28.52c-2.9,0-5.25-2.35-5.25-5.25s2.35-5.25,5.25-5.25,5.25,2.35,5.25,5.25-2.35,5.25-5.25,5.25ZM56.81,28.52c-2.9,0-5.25-2.35-5.25-5.25s2.35-5.25,5.25-5.25,5.25,2.35,5.25,5.25-2.35,5.25-5.25,5.25Z"/>
  </g>
</svg>