<?xml version="1.0" encoding="UTF-8"?>
<svg id="Layer_2" data-name="Layer 2" xmlns="http://www.w3.org/2000/svg" viewBox="0 0 104.16 94.02">
  <defs>
    <style>
      .cls-1 {
        fill: #8abfff;
      }
    </style>
  </defs>
  <g id="Layer_1-2" data-name="Layer 1">
    <g>
      <path class="cls-1" d="M55.58,32.35h-21.73v-10.32c0-.78-.44-1.5-1.14-1.85-.7-.35-1.53-.29-2.17.18L.85,42.12c-.53.39-.85,1.01-.85,1.67s.32,1.28.85,1.67l29.7,21.76c.36.27.79.4,1.23.4.32,0,.64-.07.94-.22.7-.35,1.14-1.07,1.14-1.85v-10.32h21.73c1.15,0,2.08-.93,2.08-2.08v-18.74c0-1.15-.93-2.08-2.08-2.08Z"/>
      <path class="cls-1" d="M77.1.86c1.71-1.15,3.98-1.17,5.76.09-2.12,2.15-3.62,5.04-3.1,8.14l5.55,33.25c.74,4.44-1.56,7.49-3.63,11.15l-.35-10.46c-.06-1.81-.25-3.52-.59-5.34l-5.99-31.7c-.4-2.11.84-4.1,2.37-5.14Z"/>
      <path class="cls-1" d="M68.08,20.91c-2.15-1.72-2.38-4.7-.75-6.85.95-1.25,2.21-2.17,3.79-2.35.64-.07,1.23.37,1.35,1.01l2.52,13.34-6.92-5.15Z"/>
      <path class="cls-1" d="M65.79,75.34l.25-19.39c.02-1.82-.29-3.57-.85-5.26l-2.8-8.42c-1.16-3.48,1.21-7.06,4.82-7.46.9-.1,1.82.34,2.22,1.17l5.27,10.83c.94,1.93,1.39,4.02,1.92,6.1l2.66,10.49c.22.86,1.34,1.28,1.97,1.15.89-.18,1.57-1.14,1.32-2.17l-.53-2.18c-.08-.34-.01-.7.18-.99,1.65-2.45,2.99-4.89,4.43-7.43,1.82-3.21,2.64-6.59,2.01-10.31l-5.45-32.45c-.61-3.61,2.13-6.8,5.78-6.68,1.81.06,3.58,1.31,4.07,3.13l9.92,37.14c.51,1.92.47,3.8.03,5.68l-3.58,15.07c-.86,3.61.09,7.42,2.59,10.13l2.13,2.32-24.65,18.21-10.02-9.35c-2.7-2.52-3.75-5.68-3.7-9.33Z"/>
    </g>
  </g>
</svg>