<?xml version="1.0" encoding="UTF-8"?>
<svg id="Layer_2" data-name="Layer 2" xmlns="http://www.w3.org/2000/svg" viewBox="0 0 54.84 92.67">
  <defs>
    <style>
      .cls-1 {
        fill: #8abfff;
      }
    </style>
  </defs>
  <g id="Layer_1-2" data-name="Layer 1">
    <g>
      <path class="cls-1" d="M23.9,68.46c-6.9,0-12.1,5.2-12.1,12.1s5.2,12.1,12.1,12.1,12.1-5.2,12.1-12.1-5.2-12.1-12.1-12.1Z"/>
      <path class="cls-1" d="M27.42,0C11.28,0,0,10.68,0,25.96v1.46c0,1.38,1.12,2.5,2.5,2.5h13.74c1.38,0,2.5-1.12,2.5-2.5v-.97c0-5.86,4.3-7.95,8.32-7.95,5.21,0,8.2,2.77,8.2,7.59,0,4.15-2.65,6.14-7.32,9.3l-.17.11c-5.92,3.91-13.3,8.77-13.3,21.95v1.22c0,1.38,1.12,2.5,2.5,2.5h13.49c1.38,0,2.5-1.12,2.5-2.5v-1.22c0-4.37,2.6-6.11,7.59-9.05l.3-.18c5.9-3.49,13.99-8.28,13.99-22.26C54.84,10.43,43.82,0,27.42,0Z"/>
    </g>
  </g>
</svg>