<?xml version="1.0" encoding="UTF-8"?>
<svg id="Layer_2" data-name="Layer 2" xmlns="http://www.w3.org/2000/svg" viewBox="0 0 81.23 103.76">
  <defs>
    <style>
      .cls-1 {
        fill: #8abfff;
      }
    </style>
  </defs>
  <g id="Layer_1-2" data-name="Layer 1">
    <path class="cls-1" d="M80.48,21.76c-.02-1.08-.66-2.07-1.68-2.59-1.67-.85-3.36-1.63-5.06-2.36l-.07-6.65c-.02-1.08-.66-2.07-1.68-2.59C52.16-2.52,28.47-2.52,8.63,7.57c-1.04.53-1.68,1.55-1.68,2.65,0,0,.01,3.59.03,6.49-1.79.76-3.56,1.57-5.31,2.46C.64,19.7,0,20.71,0,21.82c0,.2.13,20.02.38,47.75,0,.19.02.39.07.58,2.84,12.9,15.93,24.12,38.9,33.36.41.16.84.25,1.28.25.41,0,.82-.07,1.2-.22,18.2-6.82,31.35-17.86,39.09-32.81.22-.42.33-.88.32-1.35l-.75-47.63Z"/>
  </g>
</svg>