<?xml version="1.0" encoding="UTF-8"?>
<svg id="Layer_2" data-name="Layer 2" xmlns="http://www.w3.org/2000/svg" viewBox="0 0 80.58 105.21">
  <defs>
    <style>
      .cls-1 {
        fill: #8abfff;
      }
    </style>
  </defs>
  <g id="Layer_1-2" data-name="Layer 1">
    <g>
      <path class="cls-1" d="M48.84,63.58c-6.69,2.23-21.74,1.87-19.33-4.91.63-1.76-.33-4.89-2.51-4.84l-6.36.14c-2.27.05-4.19-1.71-3.93-4.16l.69-6.35c-8.17-11.08-9.1-25.03,1.04-35.02C29.07-2,46.41-2.14,58.45,4.66c8.22,4.65,12.44,13.14,11.28,22.52-.72,5.89-2.98,10.98-5.73,16.35-.68,1.34-.27,3.86-.06,5.39.37,2.64-1.11,4.54-3.7,4.73l-8.35.61c-2.54,3.16,2.01,7.64-3.06,9.33ZM58.43,44.11c2.24-1.4,1.63-4.63.99-6.71-.58-1.9-2.58-3.19-4.79-3.92-3.41-1.12-6.37-.09-8.96,2.27-1.47,1.34-2.48,3.06-.93,5.02,3.02,3.81,9.12,6.2,13.69,3.34ZM36.49,40.9c1.37-1.76.63-3.43-.68-4.74-2.79-2.79-6.22-3.64-9.91-2.3-2.89,1.05-4.55,3.23-4.67,6.41-.09,2.42.97,4.51,3.62,5,4.37.82,8.92-.9,11.64-4.38ZM44.09,52.1c.49-2.61-2.77-9.25-4.89-6.76-1.62,1.9-2.76,4.77-2.28,6.85,2.72-.21,4.25-.19,7.17-.09Z"/>
      <path class="cls-1" d="M74.9,104.24c-2.22,1.38-4.49,1.23-6.38-.1-1.76-1.24-2.32-3.41-2.19-5.86l-25.73-10.39-26.43,10.38c.64,3.35-1.18,6.03-4.44,6.62-1.84.33-3.77-.58-4.95-1.69-1.55-1.45-1.53-3.91-1.62-5.78-2.45-2.04-3.98-4.78-2.72-7.71s4.72-4.35,7.76-2.96l1.98,2.09,16.55-6.54-16.07-6.53c-1.15,1.76-2.72,2.84-4.72,2.77-2.72-.09-4.68-1.99-5.26-4.25-.65-2.55.47-5.07,2.81-6.59-.92-3.1.22-6.05,2.9-7.45s6.35-.32,7.67,2.71c.28.64.2,2.12.16,3.18l26.41,10.72,25.39-9.94c-.48-2.54.7-4.47,2.83-5.69s4.61-.78,6.63.78c1.75,1.35,2.47,3.65,1.95,6.12,2.6,1.21,3.57,3.84,2.95,6.46-.56,2.35-2.24,4.07-4.24,4.39-2.49.4-4.6-.32-5.9-2.74l-15.57,6.22,15.23,6.22c1.39-1.93,3.22-2.79,5.51-2.32,2.52.51,4.09,2.33,4.58,4.46.61,2.67-.23,5.05-2.64,6.53,1.03,2.7,0,5.35-2.46,6.87Z"/>
    </g>
  </g>
</svg>