<?xml version="1.0" encoding="UTF-8"?>
<svg id="Layer_2" data-name="Layer 2" xmlns="http://www.w3.org/2000/svg" viewBox="0 0 93.45 94.12">
  <defs>
    <style>
      .cls-1 {
        fill: #8abfff;
      }
    </style>
  </defs>
  <g id="Layer_1-2" data-name="Layer 1">
    <path class="cls-1" d="M73.08,39.8l-7.44,7.44L29.92,7.23s-.03-.02-.04-.03c0,0-.01-.02-.02-.03,0,0,0,0-.01,0-.01-.01-.03-.02-.04-.03,0,0-.02-.01-.02-.02-.04-.04-.09-.08-.13-.11-.03-.02-.06-.04-.09-.06-.02-.01-.05-.03-.07-.04-.03-.02-.06-.03-.1-.05-.05-.02-.1-.04-.15-.05-.03,0-.05-.02-.07-.03,0,0-.01,0-.02,0h0s0,0,0,0L1.88.04s-.05,0-.08-.01c-.04,0-.09-.02-.13-.02-.04,0-.08,0-.12,0-.04,0-.08,0-.12,0-.04,0-.08,0-.12.01-.04,0-.08.01-.12.02-.04,0-.09.02-.13.03-.03.01-.07.02-.1.04-.05.02-.09.04-.13.06-.02.01-.04.02-.06.03-.01,0-.02.01-.03.02-.04.02-.08.05-.12.08-.03.02-.06.04-.09.07-.03.03-.06.06-.09.09-.03.03-.06.06-.09.09-.02.03-.04.05-.06.08-.03.04-.06.08-.08.12,0,0-.01.02-.02.03-.01.02-.02.04-.03.06-.02.05-.05.09-.06.14-.01.03-.02.06-.03.1-.01.04-.03.09-.04.13,0,.04-.01.07-.02.11,0,.04-.01.09-.01.13,0,.04,0,.08,0,.12,0,.04,0,.08,0,.12,0,.04.01.09.02.13,0,.03,0,.05.01.08l6.72,27.26s0,0,0,.01h0s0,.01,0,.01c0,.02.02.05.03.07.02.06.03.11.06.16.01.03.03.06.05.1.01.02.02.04.03.06.02.04.04.07.06.1.03.04.06.08.09.12.02.02.03.04.05.06,0,0,0,0,0,0,0,0,0,.01.01.02.01.01.02.02.03.03.01,0,.02.02.03.03l40.02,35.72-7.52,7.52c-1.48,1.48-1.48,3.88,0,5.35.06.06.13.12.21.17l5.52,3.83c1.48,1.37,3.8,1.33,5.24-.11l9.65-9.65,9.96,8.57c-.34,3.35.77,6.82,3.34,9.38,4.53,4.53,11.9,4.53,16.43,0s4.53-11.9,0-16.43c-2.56-2.56-6.03-3.67-9.38-3.34l-8.57-9.96,10.23-10.23c1.44-1.44,1.48-3.76.11-5.24l-3.83-5.52c-.05-.07-.11-.14-.17-.21-1.48-1.48-3.88-1.48-5.35,0Z"/>
  </g>
</svg>